<svg xmlns="http://www.w3.org/2000/svg" viewBox="0 0 64 64" width="100%" height="100%">
  <defs>
    <linearGradient id="nira-grad-cyan" x1="0%" y1="0%" x2="100%" y2="100%">
      <stop offset="0%" stop-color="#00F0FF" />
      <stop offset="100%" stop-color="#00A3FF" />
    </linearGradient>
    <linearGradient id="nira-grad-violet" x1="0%" y1="0%" x2="100%" y2="100%">
      <stop offset="0%" stop-color="#7000FF" />
      <stop offset="100%" stop-color="#B026FF" />
    </linearGradient>
    <filter id="nira-shadow" x="-20%" y="-20%" width="140%" height="140%">
      <feDropShadow dx="0" dy="4" stdDeviation="6" flood-color="#000000" flood-opacity="0.5" />
    </filter>
  </defs>
  <g filter="url(#nira-shadow)">
<path d="M 6 22 L 6 14 C 6 10.7 8.7 8 12 8 L 24 8 L 30 14 L 52 14 C 55.3 14 58 16.7 58 20 L 58 46" fill="rgba(255,255,255,0.05)" stroke="rgba(255,255,255,0.2)" stroke-width="2" stroke-linejoin="round" />
<path d="M 4 28 C 4 25.8 5.8 24 8 24 L 56 24 C 58.2 24 60 25.8 60 28 L 56 52 C 55.4 54.3 53.3 56 51 56 L 13 56 C 10.7 56 8.6 54.3 8 52 Z" fill="#0B0F19" stroke="url(#nira-grad-cyan)" stroke-width="2" stroke-linejoin="round" filter="url(#nira-shadow)" />
  </g>
</svg>