<svg xmlns="http://www.w3.org/2000/svg" viewBox="0 0 64 64" width="100%" height="100%">
  <defs>
    <linearGradient id="nira-grad-cyan" x1="0%" y1="0%" x2="100%" y2="100%">
      <stop offset="0%" stop-color="#00F0FF" />
      <stop offset="100%" stop-color="#00A3FF" />
    </linearGradient>
    <linearGradient id="nira-grad-violet" x1="0%" y1="0%" x2="100%" y2="100%">
      <stop offset="0%" stop-color="#7000FF" />
      <stop offset="100%" stop-color="#B026FF" />
    </linearGradient>
    <filter id="nira-shadow" x="-20%" y="-20%" width="140%" height="140%">
      <feDropShadow dx="0" dy="4" stdDeviation="6" flood-color="#000000" flood-opacity="0.5" />
    </filter>
  </defs>

  <!-- Main Document Base -->
  <path d="M 14 6 C 10.7 6 8 8.7 8 12 L 8 52 C 8 55.3 10.7 58 14 58 L 50 58 C 53.3 58 56 55.3 56 52 L 56 22 L 40 6 Z" fill="rgba(255,255,255,0.05)" stroke="url(#nira-grad-cyan)" stroke-width="2" stroke-linejoin="round" filter="url(#nira-shadow)" />

  <!-- Folded Corner -->
  <path d="M 40 6 L 40 22 L 56 22" fill="none" stroke="url(#nira-grad-cyan)" stroke-width="2" stroke-linejoin="round" />

  <!-- Abstract Document Lines -->
  <line x1="18" y1="30" x2="46" y2="30" stroke="url(#nira-grad-violet)" stroke-width="2" stroke-linecap="round" />
  <line x1="18" y1="38" x2="38" y2="38" stroke="url(#nira-grad-violet)" stroke-width="2" stroke-linecap="round" />
  <line x1="18" y1="46" x2="32" y2="46" stroke="rgba(255,255,255,0.4)" stroke-width="2" stroke-linecap="round" />
</svg>
